<mxfile host="app.diagrams.net" modified="2024-02-06T03:13:04.462Z" agent="Mozilla/5.0 (Macintosh; Intel Mac OS X 10_15_7) AppleWebKit/537.36 (KHTML, like Gecko) Chrome/120.0.0.0 Safari/537.36" etag="P4wYY6CUP1yRzCkFwLeA" version="22.1.18" type="github">
  <diagram id="9fnjXT7nlAm7Ix4f8WDv" name="Page-1">
    <mxGraphModel dx="1136" dy="133" grid="0" gridSize="10" guides="1" tooltips="1" connect="1" arrows="1" fold="1" page="1" pageScale="1" pageWidth="600" pageHeight="530" background="#EFF1F3" math="0" shadow="0">
      <root>
        <mxCell id="0" />
        <mxCell id="1" parent="0" />
        <mxCell id="iZpdW9SJ8lec0mTw7yVw-5" value="" style="shape=image;verticalLabelPosition=bottom;labelBackgroundColor=default;verticalAlign=top;aspect=fixed;imageAspect=0;image=data:image/svg+xml,PHN2ZyB4bWxuczp4bGluaz0iaHR0cDovL3d3dy53My5vcmcvMTk5OS94bGluayIgeG1sbnM9Imh0dHA6Ly93d3cudzMub3JnLzIwMDAvc3ZnIiBoZWlnaHQ9IjIwMCIgd2lkdGg9IjIwMCIgdmVyc2lvbj0iMS4xIiB2aWV3Qm94PSIwIDAgMTAyNCAxMDI0IiBjbGFzcz0iaWNvbiI+PHBhdGggZmlsbD0iIzRhOTA5YyIgZD0iTTcyNS4zMzMzMzMgOTM4LjY2NjY2NyAxMjggOTM4LjY2NjY2N2MtMjEuMzMzMzMzIDAtMzguNC0xNy4wNjY2NjctNDIuNjY2NjY3LTM4LjRsLTg1LjMzMzMzMy03NjhjMC0xMi44IDQuMjY2NjY3LTI1LjYgOC41MzMzMzMtMzQuMTMzMzMzQzE3LjA2NjY2NyA4OS42IDI5Ljg2NjY2NyA4NS4zMzMzMzMgNDIuNjY2NjY3IDg1LjMzMzMzM2w3NjggMGMxMi44IDAgMjUuNiA0LjI2NjY2NyAyOS44NjY2NjcgMTIuOEM4NDkuMDY2NjY3IDEwNi42NjY2NjcgODUzLjMzMzMzMyAxMTkuNDY2NjY3IDg1My4zMzMzMzMgMTMyLjI2NjY2N2wtODUuMzMzMzMzIDc2OEM3NjMuNzMzMzMzIDkyMS42IDc0Ni42NjY2NjcgOTM4LjY2NjY2NyA3MjUuMzMzMzMzIDkzOC42NjY2Njd6TTE2Ni40IDg1My4zMzMzMzNsNTIwLjUzMzMzMyAwIDc2LjgtNjgyLjY2NjY2N0w4OS42IDE3MC42NjY2NjcgMTY2LjQgODUzLjMzMzMzM3oiLz48cGF0aCBmaWxsPSIjNGE5MDljIiBkPSJNOTUxLjQ2NjY2NyA2NjUuNmMtMzguNCAwLTk4LjEzMzMzMy0xNy4wNjY2NjctMjA5LjA2NjY2Ny03Ni44LTcyLjUzMzMzMy0zOC40LTE2Mi4xMzMzMzMtOTMuODY2NjY3LTI2OC44LTE2Mi4xMzMzMzMtNDIuNjY2NjY3LTI5Ljg2NjY2Ny03Mi41MzMzMzMtNDYuOTMzMzMzLTcyLjUzMzMzMy00Ni45MzMzMzNDMzg0IDM2Mi42NjY2NjcgMzc5LjczMzMzMyAzMzcuMDY2NjY3IDM5Mi41MzMzMzMgMzE1LjczMzMzM2MxMi44LTIxLjMzMzMzMyAzOC40LTI1LjYgNTkuNzMzMzMzLTEyLjggMCAwIDI1LjYgMTcuMDY2NjY3IDY4LjI2NjY2NyA0Ni45MzMzMzMgMzguNCAyNS42IDE1Ny44NjY2NjcgMTAyLjQgMjY0LjUzMzMzMyAxNTcuODY2NjY3IDg1LjMzMzMzMyA0Ni45MzMzMzMgMTI4IDU5LjczMzMzMyAxNDkuMzMzMzMzIDY0LTEyLjgtMzguNC02NC0xMDIuNC0xNzQuOTMzMzMzLTE4Ny43MzMzMzMtMTcuMDY2NjY3LTEyLjgtMjEuMzMzMzMzLTQyLjY2NjY2Ny04LjUzMzMzMy01OS43MzMzMzMgMTIuOC0xNy4wNjY2NjcgNDIuNjY2NjY3LTIxLjMzMzMzMyA1OS43MzMzMzMtOC41MzMzMzMgMTQ1LjA2NjY2NyAxMTAuOTMzMzMzIDIxMy4zMzMzMzMgMjAwLjUzMzMzMyAyMTMuMzMzMzMzIDI3My4wNjY2NjcgMCAyNS42LTEyLjggNDYuOTMzMzMzLTI5Ljg2NjY2NyA1OS43MzMzMzNDOTgxLjMzMzMzMyA2NjEuMzMzMzMzIDk2OC41MzMzMzMgNjY1LjYgOTUxLjQ2NjY2NyA2NjUuNnoiLz48cGF0aCBmaWxsPSIjNGE5MDljIiBkPSJNNDI2LjY2NjY2NyAzNDEuMzMzMzMzbS04NS4zMzMzMzMgMGEyIDIgMCAxIDAgMTcwLjY2NjY2NyAwIDIgMiAwIDEgMC0xNzAuNjY2NjY3IDBaIi8+PHBhdGggZmlsbD0iIzRhOTA5YyIgZD0iTTQyNi42NjY2NjcgNDQ4Yy01OS43MzMzMzMgMC0xMDYuNjY2NjY3LTQ2LjkzMzMzMy0xMDYuNjY2NjY3LTEwNi42NjY2NjdTMzY2LjkzMzMzMyAyMzQuNjY2NjY3IDQyNi42NjY2NjcgMjM0LjY2NjY2N3MxMDYuNjY2NjY3IDQ2LjkzMzMzMyAxMDYuNjY2NjY3IDEwNi42NjY2NjdTNDg2LjQgNDQ4IDQyNi42NjY2NjcgNDQ4ek00MjYuNjY2NjY3IDI3Ny4zMzMzMzNDMzkyLjUzMzMzMyAyNzcuMzMzMzMzIDM2Mi42NjY2NjcgMzA3LjIgMzYyLjY2NjY2NyAzNDEuMzMzMzMzUzM5Mi41MzMzMzMgNDA1LjMzMzMzMyA0MjYuNjY2NjY3IDQwNS4zMzMzMzNzNjQtMjkuODY2NjY3IDY0LTY0UzQ2MC44IDI3Ny4zMzMzMzMgNDI2LjY2NjY2NyAyNzcuMzMzMzMzeiIvPjwvc3ZnPg==;" parent="1" vertex="1">
          <mxGeometry x="111" y="878.5" width="65" height="65" as="geometry" />
        </mxCell>
        <mxCell id="iZpdW9SJ8lec0mTw7yVw-7" value="" style="shape=image;verticalLabelPosition=bottom;labelBackgroundColor=default;verticalAlign=top;aspect=fixed;imageAspect=0;image=data:image/svg+xml,PHN2ZyB4bWxuczp4bGluaz0iaHR0cDovL3d3dy53My5vcmcvMTk5OS94bGluayIgeG1sbnM9Imh0dHA6Ly93d3cudzMub3JnLzIwMDAvc3ZnIiBoZWlnaHQ9IjIwMCIgd2lkdGg9IjIwMCIgdmVyc2lvbj0iMS4xIiB2aWV3Qm94PSIwIDAgMTAyNCAxMDI0IiBjbGFzcz0iaWNvbiI+PHBhdGggZmlsbD0iIzRhOTA5YyIgZD0iTTcyNS4zMzMzMzMgOTM4LjY2NjY2NyAxMjggOTM4LjY2NjY2N2MtMjEuMzMzMzMzIDAtMzguNC0xNy4wNjY2NjctNDIuNjY2NjY3LTM4LjRsLTg1LjMzMzMzMy03NjhjMC0xMi44IDQuMjY2NjY3LTI1LjYgOC41MzMzMzMtMzQuMTMzMzMzQzE3LjA2NjY2NyA4OS42IDI5Ljg2NjY2NyA4NS4zMzMzMzMgNDIuNjY2NjY3IDg1LjMzMzMzM2w3NjggMGMxMi44IDAgMjUuNiA0LjI2NjY2NyAyOS44NjY2NjcgMTIuOEM4NDkuMDY2NjY3IDEwNi42NjY2NjcgODUzLjMzMzMzMyAxMTkuNDY2NjY3IDg1My4zMzMzMzMgMTMyLjI2NjY2N2wtODUuMzMzMzMzIDc2OEM3NjMuNzMzMzMzIDkyMS42IDc0Ni42NjY2NjcgOTM4LjY2NjY2NyA3MjUuMzMzMzMzIDkzOC42NjY2Njd6TTE2Ni40IDg1My4zMzMzMzNsNTIwLjUzMzMzMyAwIDc2LjgtNjgyLjY2NjY2N0w4OS42IDE3MC42NjY2NjcgMTY2LjQgODUzLjMzMzMzM3oiLz48cGF0aCBmaWxsPSIjNGE5MDljIiBkPSJNOTUxLjQ2NjY2NyA2NjUuNmMtMzguNCAwLTk4LjEzMzMzMy0xNy4wNjY2NjctMjA5LjA2NjY2Ny03Ni44LTcyLjUzMzMzMy0zOC40LTE2Mi4xMzMzMzMtOTMuODY2NjY3LTI2OC44LTE2Mi4xMzMzMzMtNDIuNjY2NjY3LTI5Ljg2NjY2Ny03Mi41MzMzMzMtNDYuOTMzMzMzLTcyLjUzMzMzMy00Ni45MzMzMzNDMzg0IDM2Mi42NjY2NjcgMzc5LjczMzMzMyAzMzcuMDY2NjY3IDM5Mi41MzMzMzMgMzE1LjczMzMzM2MxMi44LTIxLjMzMzMzMyAzOC40LTI1LjYgNTkuNzMzMzMzLTEyLjggMCAwIDI1LjYgMTcuMDY2NjY3IDY4LjI2NjY2NyA0Ni45MzMzMzMgMzguNCAyNS42IDE1Ny44NjY2NjcgMTAyLjQgMjY0LjUzMzMzMyAxNTcuODY2NjY3IDg1LjMzMzMzMyA0Ni45MzMzMzMgMTI4IDU5LjczMzMzMyAxNDkuMzMzMzMzIDY0LTEyLjgtMzguNC02NC0xMDIuNC0xNzQuOTMzMzMzLTE4Ny43MzMzMzMtMTcuMDY2NjY3LTEyLjgtMjEuMzMzMzMzLTQyLjY2NjY2Ny04LjUzMzMzMy01OS43MzMzMzMgMTIuOC0xNy4wNjY2NjcgNDIuNjY2NjY3LTIxLjMzMzMzMyA1OS43MzMzMzMtOC41MzMzMzMgMTQ1LjA2NjY2NyAxMTAuOTMzMzMzIDIxMy4zMzMzMzMgMjAwLjUzMzMzMyAyMTMuMzMzMzMzIDI3My4wNjY2NjcgMCAyNS42LTEyLjggNDYuOTMzMzMzLTI5Ljg2NjY2NyA1OS43MzMzMzNDOTgxLjMzMzMzMyA2NjEuMzMzMzMzIDk2OC41MzMzMzMgNjY1LjYgOTUxLjQ2NjY2NyA2NjUuNnoiLz48cGF0aCBmaWxsPSIjNGE5MDljIiBkPSJNNDI2LjY2NjY2NyAzNDEuMzMzMzMzbS04NS4zMzMzMzMgMGEyIDIgMCAxIDAgMTcwLjY2NjY2NyAwIDIgMiAwIDEgMC0xNzAuNjY2NjY3IDBaIi8+PHBhdGggZmlsbD0iIzRhOTA5YyIgZD0iTTQyNi42NjY2NjcgNDQ4Yy01OS43MzMzMzMgMC0xMDYuNjY2NjY3LTQ2LjkzMzMzMy0xMDYuNjY2NjY3LTEwNi42NjY2NjdTMzY2LjkzMzMzMyAyMzQuNjY2NjY3IDQyNi42NjY2NjcgMjM0LjY2NjY2N3MxMDYuNjY2NjY3IDQ2LjkzMzMzMyAxMDYuNjY2NjY3IDEwNi42NjY2NjdTNDg2LjQgNDQ4IDQyNi42NjY2NjcgNDQ4ek00MjYuNjY2NjY3IDI3Ny4zMzMzMzNDMzkyLjUzMzMzMyAyNzcuMzMzMzMzIDM2Mi42NjY2NjcgMzA3LjIgMzYyLjY2NjY2NyAzNDEuMzMzMzMzUzM5Mi41MzMzMzMgNDA1LjMzMzMzMyA0MjYuNjY2NjY3IDQwNS4zMzMzMzNzNjQtMjkuODY2NjY3IDY0LTY0UzQ2MC44IDI3Ny4zMzMzMzMgNDI2LjY2NjY2NyAyNzcuMzMzMzMzeiIvPjwvc3ZnPg==;" parent="1" vertex="1">
          <mxGeometry x="191" y="878.5" width="65" height="65" as="geometry" />
        </mxCell>
        <mxCell id="iZpdW9SJ8lec0mTw7yVw-8" value="&lt;font color=&quot;#4a909b&quot; style=&quot;font-size: 18px;&quot;&gt;&lt;b style=&quot;font-size: 18px;&quot;&gt;&lt;font style=&quot;font-size: 18px;&quot;&gt;0ms&lt;/font&gt;&lt;/b&gt;&lt;br style=&quot;font-size: 18px;&quot;&gt;&lt;/font&gt;" style="text;html=1;strokeColor=none;fillColor=none;align=center;verticalAlign=middle;whiteSpace=wrap;rounded=0;fontSize=18;" parent="1" vertex="1">
          <mxGeometry x="76" y="952" width="49" height="30" as="geometry" />
        </mxCell>
        <mxCell id="iZpdW9SJ8lec0mTw7yVw-9" value="&lt;font color=&quot;#4a909b&quot; style=&quot;font-size: 18px;&quot;&gt;&lt;b style=&quot;font-size: 18px;&quot;&gt;&lt;font style=&quot;font-size: 18px;&quot;&gt;200ms&lt;/font&gt;&lt;/b&gt;&lt;br style=&quot;font-size: 18px;&quot;&gt;&lt;/font&gt;" style="text;html=1;strokeColor=none;fillColor=none;align=center;verticalAlign=middle;whiteSpace=wrap;rounded=0;fontSize=18;" parent="1" vertex="1">
          <mxGeometry x="155" y="952" width="49" height="30" as="geometry" />
        </mxCell>
        <mxCell id="iZpdW9SJ8lec0mTw7yVw-12" value="" style="shape=image;verticalLabelPosition=bottom;labelBackgroundColor=default;verticalAlign=top;aspect=fixed;imageAspect=0;image=data:image/svg+xml,PHN2ZyB4bWxuczp4bGluaz0iaHR0cDovL3d3dy53My5vcmcvMTk5OS94bGluayIgeG1sbnM9Imh0dHA6Ly93d3cudzMub3JnLzIwMDAvc3ZnIiBoZWlnaHQ9IjIwMCIgd2lkdGg9IjIwMCIgdmVyc2lvbj0iMS4xIiB2aWV3Qm94PSIwIDAgMTAyNCAxMDI0IiBjbGFzcz0iaWNvbiI+PHBhdGggZmlsbD0iIzRhOTA5YyIgZD0iTTcyNS4zMzMzMzMgOTM4LjY2NjY2NyAxMjggOTM4LjY2NjY2N2MtMjEuMzMzMzMzIDAtMzguNC0xNy4wNjY2NjctNDIuNjY2NjY3LTM4LjRsLTg1LjMzMzMzMy03NjhjMC0xMi44IDQuMjY2NjY3LTI1LjYgOC41MzMzMzMtMzQuMTMzMzMzQzE3LjA2NjY2NyA4OS42IDI5Ljg2NjY2NyA4NS4zMzMzMzMgNDIuNjY2NjY3IDg1LjMzMzMzM2w3NjggMGMxMi44IDAgMjUuNiA0LjI2NjY2NyAyOS44NjY2NjcgMTIuOEM4NDkuMDY2NjY3IDEwNi42NjY2NjcgODUzLjMzMzMzMyAxMTkuNDY2NjY3IDg1My4zMzMzMzMgMTMyLjI2NjY2N2wtODUuMzMzMzMzIDc2OEM3NjMuNzMzMzMzIDkyMS42IDc0Ni42NjY2NjcgOTM4LjY2NjY2NyA3MjUuMzMzMzMzIDkzOC42NjY2Njd6TTE2Ni40IDg1My4zMzMzMzNsNTIwLjUzMzMzMyAwIDc2LjgtNjgyLjY2NjY2N0w4OS42IDE3MC42NjY2NjcgMTY2LjQgODUzLjMzMzMzM3oiLz48cGF0aCBmaWxsPSIjNGE5MDljIiBkPSJNOTUxLjQ2NjY2NyA2NjUuNmMtMzguNCAwLTk4LjEzMzMzMy0xNy4wNjY2NjctMjA5LjA2NjY2Ny03Ni44LTcyLjUzMzMzMy0zOC40LTE2Mi4xMzMzMzMtOTMuODY2NjY3LTI2OC44LTE2Mi4xMzMzMzMtNDIuNjY2NjY3LTI5Ljg2NjY2Ny03Mi41MzMzMzMtNDYuOTMzMzMzLTcyLjUzMzMzMy00Ni45MzMzMzNDMzg0IDM2Mi42NjY2NjcgMzc5LjczMzMzMyAzMzcuMDY2NjY3IDM5Mi41MzMzMzMgMzE1LjczMzMzM2MxMi44LTIxLjMzMzMzMyAzOC40LTI1LjYgNTkuNzMzMzMzLTEyLjggMCAwIDI1LjYgMTcuMDY2NjY3IDY4LjI2NjY2NyA0Ni45MzMzMzMgMzguNCAyNS42IDE1Ny44NjY2NjcgMTAyLjQgMjY0LjUzMzMzMyAxNTcuODY2NjY3IDg1LjMzMzMzMyA0Ni45MzMzMzMgMTI4IDU5LjczMzMzMyAxNDkuMzMzMzMzIDY0LTEyLjgtMzguNC02NC0xMDIuNC0xNzQuOTMzMzMzLTE4Ny43MzMzMzMtMTcuMDY2NjY3LTEyLjgtMjEuMzMzMzMzLTQyLjY2NjY2Ny04LjUzMzMzMy01OS43MzMzMzMgMTIuOC0xNy4wNjY2NjcgNDIuNjY2NjY3LTIxLjMzMzMzMyA1OS43MzMzMzMtOC41MzMzMzMgMTQ1LjA2NjY2NyAxMTAuOTMzMzMzIDIxMy4zMzMzMzMgMjAwLjUzMzMzMyAyMTMuMzMzMzMzIDI3My4wNjY2NjcgMCAyNS42LTEyLjggNDYuOTMzMzMzLTI5Ljg2NjY2NyA1OS43MzMzMzNDOTgxLjMzMzMzMyA2NjEuMzMzMzMzIDk2OC41MzMzMzMgNjY1LjYgOTUxLjQ2NjY2NyA2NjUuNnoiLz48cGF0aCBmaWxsPSIjNGE5MDljIiBkPSJNNDI2LjY2NjY2NyAzNDEuMzMzMzMzbS04NS4zMzMzMzMgMGEyIDIgMCAxIDAgMTcwLjY2NjY2NyAwIDIgMiAwIDEgMC0xNzAuNjY2NjY3IDBaIi8+PHBhdGggZmlsbD0iIzRhOTA5YyIgZD0iTTQyNi42NjY2NjcgNDQ4Yy01OS43MzMzMzMgMC0xMDYuNjY2NjY3LTQ2LjkzMzMzMy0xMDYuNjY2NjY3LTEwNi42NjY2NjdTMzY2LjkzMzMzMyAyMzQuNjY2NjY3IDQyNi42NjY2NjcgMjM0LjY2NjY2N3MxMDYuNjY2NjY3IDQ2LjkzMzMzMyAxMDYuNjY2NjY3IDEwNi42NjY2NjdTNDg2LjQgNDQ4IDQyNi42NjY2NjcgNDQ4ek00MjYuNjY2NjY3IDI3Ny4zMzMzMzNDMzkyLjUzMzMzMyAyNzcuMzMzMzMzIDM2Mi42NjY2NjcgMzA3LjIgMzYyLjY2NjY2NyAzNDEuMzMzMzMzUzM5Mi41MzMzMzMgNDA1LjMzMzMzMyA0MjYuNjY2NjY3IDQwNS4zMzMzMzNzNjQtMjkuODY2NjY3IDY0LTY0UzQ2MC44IDI3Ny4zMzMzMzMgNDI2LjY2NjY2NyAyNzcuMzMzMzMzeiIvPjwvc3ZnPg==;" parent="1" vertex="1">
          <mxGeometry x="271" y="878.5" width="65" height="65" as="geometry" />
        </mxCell>
        <mxCell id="iZpdW9SJ8lec0mTw7yVw-14" value="" style="shape=image;verticalLabelPosition=bottom;labelBackgroundColor=default;verticalAlign=top;aspect=fixed;imageAspect=0;image=data:image/svg+xml,PHN2ZyB4bWxuczp4bGluaz0iaHR0cDovL3d3dy53My5vcmcvMTk5OS94bGluayIgeG1sbnM9Imh0dHA6Ly93d3cudzMub3JnLzIwMDAvc3ZnIiBoZWlnaHQ9IjIwMCIgd2lkdGg9IjIwMCIgdmVyc2lvbj0iMS4xIiB2aWV3Qm94PSIwIDAgMTAyNCAxMDI0IiBjbGFzcz0iaWNvbiI+PHBhdGggZmlsbD0iIzRhOTA5YyIgZD0iTTcyNS4zMzMzMzMgOTM4LjY2NjY2NyAxMjggOTM4LjY2NjY2N2MtMjEuMzMzMzMzIDAtMzguNC0xNy4wNjY2NjctNDIuNjY2NjY3LTM4LjRsLTg1LjMzMzMzMy03NjhjMC0xMi44IDQuMjY2NjY3LTI1LjYgOC41MzMzMzMtMzQuMTMzMzMzQzE3LjA2NjY2NyA4OS42IDI5Ljg2NjY2NyA4NS4zMzMzMzMgNDIuNjY2NjY3IDg1LjMzMzMzM2w3NjggMGMxMi44IDAgMjUuNiA0LjI2NjY2NyAyOS44NjY2NjcgMTIuOEM4NDkuMDY2NjY3IDEwNi42NjY2NjcgODUzLjMzMzMzMyAxMTkuNDY2NjY3IDg1My4zMzMzMzMgMTMyLjI2NjY2N2wtODUuMzMzMzMzIDc2OEM3NjMuNzMzMzMzIDkyMS42IDc0Ni42NjY2NjcgOTM4LjY2NjY2NyA3MjUuMzMzMzMzIDkzOC42NjY2Njd6TTE2Ni40IDg1My4zMzMzMzNsNTIwLjUzMzMzMyAwIDc2LjgtNjgyLjY2NjY2N0w4OS42IDE3MC42NjY2NjcgMTY2LjQgODUzLjMzMzMzM3oiLz48cGF0aCBmaWxsPSIjNGE5MDljIiBkPSJNOTUxLjQ2NjY2NyA2NjUuNmMtMzguNCAwLTk4LjEzMzMzMy0xNy4wNjY2NjctMjA5LjA2NjY2Ny03Ni44LTcyLjUzMzMzMy0zOC40LTE2Mi4xMzMzMzMtOTMuODY2NjY3LTI2OC44LTE2Mi4xMzMzMzMtNDIuNjY2NjY3LTI5Ljg2NjY2Ny03Mi41MzMzMzMtNDYuOTMzMzMzLTcyLjUzMzMzMy00Ni45MzMzMzNDMzg0IDM2Mi42NjY2NjcgMzc5LjczMzMzMyAzMzcuMDY2NjY3IDM5Mi41MzMzMzMgMzE1LjczMzMzM2MxMi44LTIxLjMzMzMzMyAzOC40LTI1LjYgNTkuNzMzMzMzLTEyLjggMCAwIDI1LjYgMTcuMDY2NjY3IDY4LjI2NjY2NyA0Ni45MzMzMzMgMzguNCAyNS42IDE1Ny44NjY2NjcgMTAyLjQgMjY0LjUzMzMzMyAxNTcuODY2NjY3IDg1LjMzMzMzMyA0Ni45MzMzMzMgMTI4IDU5LjczMzMzMyAxNDkuMzMzMzMzIDY0LTEyLjgtMzguNC02NC0xMDIuNC0xNzQuOTMzMzMzLTE4Ny43MzMzMzMtMTcuMDY2NjY3LTEyLjgtMjEuMzMzMzMzLTQyLjY2NjY2Ny04LjUzMzMzMy01OS43MzMzMzMgMTIuOC0xNy4wNjY2NjcgNDIuNjY2NjY3LTIxLjMzMzMzMyA1OS43MzMzMzMtOC41MzMzMzMgMTQ1LjA2NjY2NyAxMTAuOTMzMzMzIDIxMy4zMzMzMzMgMjAwLjUzMzMzMyAyMTMuMzMzMzMzIDI3My4wNjY2NjcgMCAyNS42LTEyLjggNDYuOTMzMzMzLTI5Ljg2NjY2NyA1OS43MzMzMzNDOTgxLjMzMzMzMyA2NjEuMzMzMzMzIDk2OC41MzMzMzMgNjY1LjYgOTUxLjQ2NjY2NyA2NjUuNnoiLz48cGF0aCBmaWxsPSIjNGE5MDljIiBkPSJNNDI2LjY2NjY2NyAzNDEuMzMzMzMzbS04NS4zMzMzMzMgMGEyIDIgMCAxIDAgMTcwLjY2NjY2NyAwIDIgMiAwIDEgMC0xNzAuNjY2NjY3IDBaIi8+PHBhdGggZmlsbD0iIzRhOTA5YyIgZD0iTTQyNi42NjY2NjcgNDQ4Yy01OS43MzMzMzMgMC0xMDYuNjY2NjY3LTQ2LjkzMzMzMy0xMDYuNjY2NjY3LTEwNi42NjY2NjdTMzY2LjkzMzMzMyAyMzQuNjY2NjY3IDQyNi42NjY2NjcgMjM0LjY2NjY2N3MxMDYuNjY2NjY3IDQ2LjkzMzMzMyAxMDYuNjY2NjY3IDEwNi42NjY2NjdTNDg2LjQgNDQ4IDQyNi42NjY2NjcgNDQ4ek00MjYuNjY2NjY3IDI3Ny4zMzMzMzNDMzkyLjUzMzMzMyAyNzcuMzMzMzMzIDM2Mi42NjY2NjcgMzA3LjIgMzYyLjY2NjY2NyAzNDEuMzMzMzMzUzM5Mi41MzMzMzMgNDA1LjMzMzMzMyA0MjYuNjY2NjY3IDQwNS4zMzMzMzNzNjQtMjkuODY2NjY3IDY0LTY0UzQ2MC44IDI3Ny4zMzMzMzMgNDI2LjY2NjY2NyAyNzcuMzMzMzMzeiIvPjwvc3ZnPg==;" parent="1" vertex="1">
          <mxGeometry x="351" y="878.5" width="65" height="65" as="geometry" />
        </mxCell>
        <mxCell id="iZpdW9SJ8lec0mTw7yVw-15" value="&lt;font color=&quot;#4a909b&quot; style=&quot;font-size: 18px;&quot;&gt;&lt;b style=&quot;font-size: 18px;&quot;&gt;&lt;font style=&quot;font-size: 18px;&quot;&gt;400ms&lt;/font&gt;&lt;/b&gt;&lt;br style=&quot;font-size: 18px;&quot;&gt;&lt;/font&gt;" style="text;html=1;strokeColor=none;fillColor=none;align=center;verticalAlign=middle;whiteSpace=wrap;rounded=0;fontSize=18;" parent="1" vertex="1">
          <mxGeometry x="236" y="952" width="49" height="30" as="geometry" />
        </mxCell>
        <mxCell id="iZpdW9SJ8lec0mTw7yVw-16" value="&lt;font color=&quot;#4a909b&quot; style=&quot;font-size: 18px;&quot;&gt;&lt;b style=&quot;font-size: 18px;&quot;&gt;&lt;font style=&quot;font-size: 18px;&quot;&gt;600ms&lt;/font&gt;&lt;/b&gt;&lt;br style=&quot;font-size: 18px;&quot;&gt;&lt;/font&gt;" style="text;html=1;strokeColor=none;fillColor=none;align=center;verticalAlign=middle;whiteSpace=wrap;rounded=0;fontSize=18;" parent="1" vertex="1">
          <mxGeometry x="315" y="952" width="49" height="30" as="geometry" />
        </mxCell>
        <mxCell id="iZpdW9SJ8lec0mTw7yVw-18" value="" style="shape=image;verticalLabelPosition=bottom;labelBackgroundColor=default;verticalAlign=top;aspect=fixed;imageAspect=0;image=data:image/svg+xml,PHN2ZyB4bWxuczp4bGluaz0iaHR0cDovL3d3dy53My5vcmcvMTk5OS94bGluayIgeG1sbnM9Imh0dHA6Ly93d3cudzMub3JnLzIwMDAvc3ZnIiBoZWlnaHQ9IjIwMCIgd2lkdGg9IjIwMCIgdmVyc2lvbj0iMS4xIiB2aWV3Qm94PSIwIDAgMTAyNCAxMDI0IiBjbGFzcz0iaWNvbiI+PHBhdGggZmlsbD0iIzRhOTA5YyIgZD0iTTcyNS4zMzMzMzMgOTM4LjY2NjY2NyAxMjggOTM4LjY2NjY2N2MtMjEuMzMzMzMzIDAtMzguNC0xNy4wNjY2NjctNDIuNjY2NjY3LTM4LjRsLTg1LjMzMzMzMy03NjhjMC0xMi44IDQuMjY2NjY3LTI1LjYgOC41MzMzMzMtMzQuMTMzMzMzQzE3LjA2NjY2NyA4OS42IDI5Ljg2NjY2NyA4NS4zMzMzMzMgNDIuNjY2NjY3IDg1LjMzMzMzM2w3NjggMGMxMi44IDAgMjUuNiA0LjI2NjY2NyAyOS44NjY2NjcgMTIuOEM4NDkuMDY2NjY3IDEwNi42NjY2NjcgODUzLjMzMzMzMyAxMTkuNDY2NjY3IDg1My4zMzMzMzMgMTMyLjI2NjY2N2wtODUuMzMzMzMzIDc2OEM3NjMuNzMzMzMzIDkyMS42IDc0Ni42NjY2NjcgOTM4LjY2NjY2NyA3MjUuMzMzMzMzIDkzOC42NjY2Njd6TTE2Ni40IDg1My4zMzMzMzNsNTIwLjUzMzMzMyAwIDc2LjgtNjgyLjY2NjY2N0w4OS42IDE3MC42NjY2NjcgMTY2LjQgODUzLjMzMzMzM3oiLz48cGF0aCBmaWxsPSIjNGE5MDljIiBkPSJNOTUxLjQ2NjY2NyA2NjUuNmMtMzguNCAwLTk4LjEzMzMzMy0xNy4wNjY2NjctMjA5LjA2NjY2Ny03Ni44LTcyLjUzMzMzMy0zOC40LTE2Mi4xMzMzMzMtOTMuODY2NjY3LTI2OC44LTE2Mi4xMzMzMzMtNDIuNjY2NjY3LTI5Ljg2NjY2Ny03Mi41MzMzMzMtNDYuOTMzMzMzLTcyLjUzMzMzMy00Ni45MzMzMzNDMzg0IDM2Mi42NjY2NjcgMzc5LjczMzMzMyAzMzcuMDY2NjY3IDM5Mi41MzMzMzMgMzE1LjczMzMzM2MxMi44LTIxLjMzMzMzMyAzOC40LTI1LjYgNTkuNzMzMzMzLTEyLjggMCAwIDI1LjYgMTcuMDY2NjY3IDY4LjI2NjY2NyA0Ni45MzMzMzMgMzguNCAyNS42IDE1Ny44NjY2NjcgMTAyLjQgMjY0LjUzMzMzMyAxNTcuODY2NjY3IDg1LjMzMzMzMyA0Ni45MzMzMzMgMTI4IDU5LjczMzMzMyAxNDkuMzMzMzMzIDY0LTEyLjgtMzguNC02NC0xMDIuNC0xNzQuOTMzMzMzLTE4Ny43MzMzMzMtMTcuMDY2NjY3LTEyLjgtMjEuMzMzMzMzLTQyLjY2NjY2Ny04LjUzMzMzMy01OS43MzMzMzMgMTIuOC0xNy4wNjY2NjcgNDIuNjY2NjY3LTIxLjMzMzMzMyA1OS43MzMzMzMtOC41MzMzMzMgMTQ1LjA2NjY2NyAxMTAuOTMzMzMzIDIxMy4zMzMzMzMgMjAwLjUzMzMzMyAyMTMuMzMzMzMzIDI3My4wNjY2NjcgMCAyNS42LTEyLjggNDYuOTMzMzMzLTI5Ljg2NjY2NyA1OS43MzMzMzNDOTgxLjMzMzMzMyA2NjEuMzMzMzMzIDk2OC41MzMzMzMgNjY1LjYgOTUxLjQ2NjY2NyA2NjUuNnoiLz48cGF0aCBmaWxsPSIjNGE5MDljIiBkPSJNNDI2LjY2NjY2NyAzNDEuMzMzMzMzbS04NS4zMzMzMzMgMGEyIDIgMCAxIDAgMTcwLjY2NjY2NyAwIDIgMiAwIDEgMC0xNzAuNjY2NjY3IDBaIi8+PHBhdGggZmlsbD0iIzRhOTA5YyIgZD0iTTQyNi42NjY2NjcgNDQ4Yy01OS43MzMzMzMgMC0xMDYuNjY2NjY3LTQ2LjkzMzMzMy0xMDYuNjY2NjY3LTEwNi42NjY2NjdTMzY2LjkzMzMzMyAyMzQuNjY2NjY3IDQyNi42NjY2NjcgMjM0LjY2NjY2N3MxMDYuNjY2NjY3IDQ2LjkzMzMzMyAxMDYuNjY2NjY3IDEwNi42NjY2NjdTNDg2LjQgNDQ4IDQyNi42NjY2NjcgNDQ4ek00MjYuNjY2NjY3IDI3Ny4zMzMzMzNDMzkyLjUzMzMzMyAyNzcuMzMzMzMzIDM2Mi42NjY2NjcgMzA3LjIgMzYyLjY2NjY2NyAzNDEuMzMzMzMzUzM5Mi41MzMzMzMgNDA1LjMzMzMzMyA0MjYuNjY2NjY3IDQwNS4zMzMzMzNzNjQtMjkuODY2NjY3IDY0LTY0UzQ2MC44IDI3Ny4zMzMzMzMgNDI2LjY2NjY2NyAyNzcuMzMzMzMzeiIvPjwvc3ZnPg==;" parent="1" vertex="1">
          <mxGeometry x="431" y="878.5" width="65" height="65" as="geometry" />
        </mxCell>
        <mxCell id="iZpdW9SJ8lec0mTw7yVw-21" value="&lt;font color=&quot;#4a909b&quot; style=&quot;font-size: 18px;&quot;&gt;&lt;b style=&quot;font-size: 18px;&quot;&gt;&lt;font style=&quot;font-size: 18px;&quot;&gt;800ms&lt;/font&gt;&lt;/b&gt;&lt;br style=&quot;font-size: 18px;&quot;&gt;&lt;/font&gt;" style="text;html=1;strokeColor=none;fillColor=none;align=center;verticalAlign=middle;whiteSpace=wrap;rounded=0;fontSize=18;" parent="1" vertex="1">
          <mxGeometry x="396" y="952" width="49" height="30" as="geometry" />
        </mxCell>
        <mxCell id="iZpdW9SJ8lec0mTw7yVw-22" value="&lt;font color=&quot;#4a909b&quot; style=&quot;font-size: 18px;&quot;&gt;&lt;b style=&quot;font-size: 18px;&quot;&gt;&lt;font style=&quot;font-size: 18px;&quot;&gt;1s&lt;/font&gt;&lt;/b&gt;&lt;br style=&quot;font-size: 18px;&quot;&gt;&lt;/font&gt;" style="text;html=1;strokeColor=none;fillColor=none;align=center;verticalAlign=middle;whiteSpace=wrap;rounded=0;fontSize=18;" parent="1" vertex="1">
          <mxGeometry x="475" y="952" width="49" height="30" as="geometry" />
        </mxCell>
        <mxCell id="iZpdW9SJ8lec0mTw7yVw-23" value="" style="shape=curlyBracket;whiteSpace=wrap;html=1;rounded=1;labelPosition=left;verticalLabelPosition=middle;align=right;verticalAlign=middle;rotation=-90;strokeWidth=2;strokeColor=#4A909B;" parent="1" vertex="1">
          <mxGeometry x="291" y="800" width="20" height="399" as="geometry" />
        </mxCell>
        <mxCell id="iZpdW9SJ8lec0mTw7yVw-24" value="&lt;b style=&quot;border-color: var(--border-color); color: rgb(74, 144, 155);&quot;&gt;&lt;font style=&quot;border-color: var(--border-color); font-size: 24px;&quot;&gt;Δt = 1s&lt;/font&gt;&lt;/b&gt;&lt;font color=&quot;#4a909b&quot;&gt;&lt;br&gt;&lt;/font&gt;" style="text;html=1;strokeColor=none;fillColor=none;align=center;verticalAlign=middle;whiteSpace=wrap;rounded=0;" parent="1" vertex="1">
          <mxGeometry x="229.5" y="1014" width="132" height="30" as="geometry" />
        </mxCell>
        <mxCell id="IjzV-WfMYcEyj9Ah22bj-15" value="" style="shape=image;verticalLabelPosition=bottom;labelBackgroundColor=default;verticalAlign=top;aspect=fixed;imageAspect=0;image=data:image/svg+xml,PHN2ZyB4bWxuczp4bGluaz0iaHR0cDovL3d3dy53My5vcmcvMTk5OS94bGluayIgeG1sbnM9Imh0dHA6Ly93d3cudzMub3JnLzIwMDAvc3ZnIiBoZWlnaHQ9IjIwMCIgd2lkdGg9IjIwMCIgdmVyc2lvbj0iMS4xIiB2aWV3Qm94PSIwIDAgMTAyNCAxMDI0IiBjbGFzcz0iaWNvbiI+PHBhdGggZmlsbD0iIzRhOTA5YyIgZD0iTTcyNS4zMzMzMzMgOTM4LjY2NjY2NyAxMjggOTM4LjY2NjY2N2MtMjEuMzMzMzMzIDAtMzguNC0xNy4wNjY2NjctNDIuNjY2NjY3LTM4LjRsLTg1LjMzMzMzMy03NjhjMC0xMi44IDQuMjY2NjY3LTI1LjYgOC41MzMzMzMtMzQuMTMzMzMzQzE3LjA2NjY2NyA4OS42IDI5Ljg2NjY2NyA4NS4zMzMzMzMgNDIuNjY2NjY3IDg1LjMzMzMzM2w3NjggMGMxMi44IDAgMjUuNiA0LjI2NjY2NyAyOS44NjY2NjcgMTIuOEM4NDkuMDY2NjY3IDEwNi42NjY2NjcgODUzLjMzMzMzMyAxMTkuNDY2NjY3IDg1My4zMzMzMzMgMTMyLjI2NjY2N2wtODUuMzMzMzMzIDc2OEM3NjMuNzMzMzMzIDkyMS42IDc0Ni42NjY2NjcgOTM4LjY2NjY2NyA3MjUuMzMzMzMzIDkzOC42NjY2Njd6TTE2Ni40IDg1My4zMzMzMzNsNTIwLjUzMzMzMyAwIDc2LjgtNjgyLjY2NjY2N0w4OS42IDE3MC42NjY2NjcgMTY2LjQgODUzLjMzMzMzM3oiLz48cGF0aCBmaWxsPSIjNGE5MDljIiBkPSJNOTUxLjQ2NjY2NyA2NjUuNmMtMzguNCAwLTk4LjEzMzMzMy0xNy4wNjY2NjctMjA5LjA2NjY2Ny03Ni44LTcyLjUzMzMzMy0zOC40LTE2Mi4xMzMzMzMtOTMuODY2NjY3LTI2OC44LTE2Mi4xMzMzMzMtNDIuNjY2NjY3LTI5Ljg2NjY2Ny03Mi41MzMzMzMtNDYuOTMzMzMzLTcyLjUzMzMzMy00Ni45MzMzMzNDMzg0IDM2Mi42NjY2NjcgMzc5LjczMzMzMyAzMzcuMDY2NjY3IDM5Mi41MzMzMzMgMzE1LjczMzMzM2MxMi44LTIxLjMzMzMzMyAzOC40LTI1LjYgNTkuNzMzMzMzLTEyLjggMCAwIDI1LjYgMTcuMDY2NjY3IDY4LjI2NjY2NyA0Ni45MzMzMzMgMzguNCAyNS42IDE1Ny44NjY2NjcgMTAyLjQgMjY0LjUzMzMzMyAxNTcuODY2NjY3IDg1LjMzMzMzMyA0Ni45MzMzMzMgMTI4IDU5LjczMzMzMyAxNDkuMzMzMzMzIDY0LTEyLjgtMzguNC02NC0xMDIuNC0xNzQuOTMzMzMzLTE4Ny43MzMzMzMtMTcuMDY2NjY3LTEyLjgtMjEuMzMzMzMzLTQyLjY2NjY2Ny04LjUzMzMzMy01OS43MzMzMzMgMTIuOC0xNy4wNjY2NjcgNDIuNjY2NjY3LTIxLjMzMzMzMyA1OS43MzMzMzMtOC41MzMzMzMgMTQ1LjA2NjY2NyAxMTAuOTMzMzMzIDIxMy4zMzMzMzMgMjAwLjUzMzMzMyAyMTMuMzMzMzMzIDI3My4wNjY2NjcgMCAyNS42LTEyLjggNDYuOTMzMzMzLTI5Ljg2NjY2NyA1OS43MzMzMzNDOTgxLjMzMzMzMyA2NjEuMzMzMzMzIDk2OC41MzMzMzMgNjY1LjYgOTUxLjQ2NjY2NyA2NjUuNnoiLz48cGF0aCBmaWxsPSIjNGE5MDljIiBkPSJNNDI2LjY2NjY2NyAzNDEuMzMzMzMzbS04NS4zMzMzMzMgMGEyIDIgMCAxIDAgMTcwLjY2NjY2NyAwIDIgMiAwIDEgMC0xNzAuNjY2NjY3IDBaIi8+PHBhdGggZmlsbD0iIzRhOTA5YyIgZD0iTTQyNi42NjY2NjcgNDQ4Yy01OS43MzMzMzMgMC0xMDYuNjY2NjY3LTQ2LjkzMzMzMy0xMDYuNjY2NjY3LTEwNi42NjY2NjdTMzY2LjkzMzMzMyAyMzQuNjY2NjY3IDQyNi42NjY2NjcgMjM0LjY2NjY2N3MxMDYuNjY2NjY3IDQ2LjkzMzMzMyAxMDYuNjY2NjY3IDEwNi42NjY2NjdTNDg2LjQgNDQ4IDQyNi42NjY2NjcgNDQ4ek00MjYuNjY2NjY3IDI3Ny4zMzMzMzNDMzkyLjUzMzMzMyAyNzcuMzMzMzMzIDM2Mi42NjY2NjcgMzA3LjIgMzYyLjY2NjY2NyAzNDEuMzMzMzMzUzM5Mi41MzMzMzMgNDA1LjMzMzMzMyA0MjYuNjY2NjY3IDQwNS4zMzMzMzNzNjQtMjkuODY2NjY3IDY0LTY0UzQ2MC44IDI3Ny4zMzMzMzMgNDI2LjY2NjY2NyAyNzcuMzMzMzMzeiIvPjwvc3ZnPg==;" parent="1" vertex="1">
          <mxGeometry x="263" y="612.5" width="65" height="65" as="geometry" />
        </mxCell>
        <mxCell id="IjzV-WfMYcEyj9Ah22bj-16" value="&lt;font color=&quot;#4a909b&quot;&gt;&lt;b style=&quot;&quot;&gt;&lt;font style=&quot;font-size: 25px;&quot;&gt;0s&lt;/font&gt;&lt;/b&gt;&lt;br&gt;&lt;/font&gt;" style="text;html=1;strokeColor=none;fillColor=none;align=center;verticalAlign=middle;whiteSpace=wrap;rounded=0;" parent="1" vertex="1">
          <mxGeometry x="228" y="692" width="49" height="30" as="geometry" />
        </mxCell>
        <mxCell id="IjzV-WfMYcEyj9Ah22bj-17" value="&lt;font color=&quot;#4a909b&quot;&gt;&lt;b style=&quot;&quot;&gt;&lt;font style=&quot;font-size: 25px;&quot;&gt;1s&lt;/font&gt;&lt;/b&gt;&lt;br&gt;&lt;/font&gt;" style="text;html=1;strokeColor=none;fillColor=none;align=center;verticalAlign=middle;whiteSpace=wrap;rounded=0;" parent="1" vertex="1">
          <mxGeometry x="307" y="692" width="49" height="30" as="geometry" />
        </mxCell>
        <mxCell id="IjzV-WfMYcEyj9Ah22bj-18" value="" style="shape=curlyBracket;whiteSpace=wrap;html=1;rounded=1;labelPosition=left;verticalLabelPosition=middle;align=right;verticalAlign=middle;rotation=-90;strokeWidth=2;strokeColor=#4A909B;" parent="1" vertex="1">
          <mxGeometry x="284" y="695" width="20" height="77" as="geometry" />
        </mxCell>
        <mxCell id="IjzV-WfMYcEyj9Ah22bj-19" value="&lt;b style=&quot;border-color: var(--border-color); color: rgb(74, 144, 155);&quot;&gt;&lt;font style=&quot;border-color: var(--border-color); font-size: 24px;&quot;&gt;Δt = 1s&lt;/font&gt;&lt;/b&gt;&lt;font color=&quot;#4a909b&quot;&gt;&lt;br&gt;&lt;/font&gt;" style="text;html=1;strokeColor=none;fillColor=none;align=center;verticalAlign=middle;whiteSpace=wrap;rounded=0;" parent="1" vertex="1">
          <mxGeometry x="228" y="747" width="132" height="30" as="geometry" />
        </mxCell>
        <mxCell id="IjzV-WfMYcEyj9Ah22bj-20" value="&lt;font color=&quot;#4a909b&quot;&gt;&lt;b style=&quot;&quot;&gt;&lt;font style=&quot;font-size: 24px;&quot;&gt;20&lt;/font&gt;&lt;/b&gt;&lt;br&gt;&lt;/font&gt;" style="text;html=1;strokeColor=none;fillColor=none;align=center;verticalAlign=middle;whiteSpace=wrap;rounded=0;" parent="1" vertex="1">
          <mxGeometry x="271.5" y="547" width="101" height="30" as="geometry" />
        </mxCell>
        <mxCell id="IjzV-WfMYcEyj9Ah22bj-21" value="&lt;b style=&quot;border-color: var(--border-color); color: rgb(74, 144, 155);&quot;&gt;&lt;font style=&quot;border-color: var(--border-color); font-size: 24px;&quot;&gt;Δcnt =&lt;/font&gt;&lt;/b&gt;&lt;font color=&quot;#4a909b&quot;&gt;&lt;br&gt;&lt;/font&gt;" style="text;html=1;strokeColor=none;fillColor=none;align=center;verticalAlign=middle;whiteSpace=wrap;rounded=0;" parent="1" vertex="1">
          <mxGeometry x="191" y="546" width="137" height="30" as="geometry" />
        </mxCell>
        <mxCell id="IjzV-WfMYcEyj9Ah22bj-22" value="" style="shape=curlyBracket;whiteSpace=wrap;html=1;rounded=1;labelPosition=left;verticalLabelPosition=middle;align=right;verticalAlign=middle;rotation=-90;strokeWidth=2;strokeColor=#4A909B;flipV=0;direction=west;" parent="1" vertex="1">
          <mxGeometry x="281" y="549.5" width="20" height="77" as="geometry" />
        </mxCell>
        <mxCell id="IjzV-WfMYcEyj9Ah22bj-24" value="" style="shape=flexArrow;endArrow=classic;html=1;rounded=0;endWidth=27.828673408685308;endSize=8.870967741935484;width=17.096774193548388;fillColor=#4A909B;strokeColor=none;" parent="1" edge="1">
          <mxGeometry width="50" height="50" relative="1" as="geometry">
            <mxPoint x="295.03" y="787.0000000000002" as="sourcePoint" />
            <mxPoint x="295" y="846.0500000000002" as="targetPoint" />
          </mxGeometry>
        </mxCell>
        <mxCell id="ekyofGv6aXX_gGek1B51-1" value="&lt;font color=&quot;#4a909b&quot; style=&quot;font-size: 19px;&quot;&gt;公众号：小白debug&lt;/font&gt;" style="text;html=1;strokeColor=none;fillColor=none;align=center;verticalAlign=middle;whiteSpace=wrap;rounded=0;fontSize=16;textOpacity=40;" vertex="1" parent="1">
          <mxGeometry x="315" y="829" width="185" height="30" as="geometry" />
        </mxCell>
        <mxCell id="ekyofGv6aXX_gGek1B51-2" value="" style="rounded=1;whiteSpace=wrap;html=1;strokeWidth=2;strokeColor=#4A909B;fillColor=none;" vertex="1" parent="1">
          <mxGeometry x="99" y="870" width="80" height="81" as="geometry" />
        </mxCell>
        <mxCell id="ekyofGv6aXX_gGek1B51-4" value="" style="rounded=1;whiteSpace=wrap;html=1;strokeWidth=2;strokeColor=#4A909B;fillColor=none;" vertex="1" parent="1">
          <mxGeometry x="179" y="870" width="80" height="81" as="geometry" />
        </mxCell>
        <mxCell id="ekyofGv6aXX_gGek1B51-5" value="" style="rounded=1;whiteSpace=wrap;html=1;strokeWidth=2;strokeColor=#4A909B;fillColor=none;" vertex="1" parent="1">
          <mxGeometry x="259" y="870" width="80" height="81" as="geometry" />
        </mxCell>
        <mxCell id="ekyofGv6aXX_gGek1B51-6" value="" style="rounded=1;whiteSpace=wrap;html=1;strokeWidth=2;strokeColor=#4A909B;fillColor=none;" vertex="1" parent="1">
          <mxGeometry x="339" y="870.5" width="80" height="81" as="geometry" />
        </mxCell>
        <mxCell id="ekyofGv6aXX_gGek1B51-7" value="" style="rounded=1;whiteSpace=wrap;html=1;strokeWidth=2;strokeColor=#4A909B;fillColor=none;" vertex="1" parent="1">
          <mxGeometry x="419" y="870" width="80" height="81" as="geometry" />
        </mxCell>
        <mxCell id="ekyofGv6aXX_gGek1B51-8" value="" style="rounded=1;whiteSpace=wrap;html=1;strokeWidth=2;strokeColor=#4A909B;fillColor=none;" vertex="1" parent="1">
          <mxGeometry x="251" y="604.5" width="80" height="81" as="geometry" />
        </mxCell>
      </root>
    </mxGraphModel>
  </diagram>
</mxfile>
